<?xml version="1.0" encoding="UTF-8"?><svg id="Layer_1" xmlns="http://www.w3.org/2000/svg" viewBox="0 0 121.64 61.39"><defs><style>.cls-1{fill:#181818;}</style></defs><path class="cls-1" d="M115.89,5.33V52.96h-26.05V5.33h26.05Zm-70.13-.53h0c-6.78,0-12.27,5.5-12.27,12.27v13.05h24.55v-13.05c0-6.78-5.5-12.27-12.27-12.27Zm-12.27,51.79h24.55v-22.8h-24.55v22.8Zm28.18-24.62v9.19c0,6.78,5.5,12.27,12.27,12.27h0c6.78,0,12.27-5.5,12.27-12.27V5.33h-24.55V31.97ZM18.02,5.27H5.75V56.59H30.3l-12.27-26.77h0c6.78,0,12.27-5.5,12.27-12.27h0c0-6.78-5.5-12.27-12.27-12.27Z"/></svg>